<svg width="78" height="68" viewBox="0 0 78 68" fill="none" xmlns="http://www.w3.org/2000/svg">
<g clip-path="url(#clip0_29_1114)">
<path d="M0 5C0 2.23858 2.23858 0 5 0H73C75.7614 0 78 2.23858 78 5V63C78 65.7614 75.7614 68 73 68H5C2.23858 68 0 65.7614 0 63V5Z" fill="#C0FEEF"/>
<g filter="url(#filter0_d_29_1114)">
<path d="M28.4058 43.3717C28.3892 43.3009 28.3652 43.2312 28.3333 43.1637C28.3016 43.0973 28.2623 43.0331 28.2167 42.9733C28.1708 42.9124 28.1175 42.856 28.0592 42.805C28.0007 42.7542 27.936 42.7077 27.8661 42.6679C27.7976 42.6279 27.724 42.5937 27.6466 42.566C27.5704 42.5384 27.4904 42.5162 27.4092 42.503C27.2454 42.4741 27.0766 42.4741 26.9141 42.503C26.8328 42.5162 26.7529 42.5384 26.6753 42.566C26.5991 42.5937 26.5255 42.6279 26.4569 42.6679C26.3872 42.7077 26.3224 42.7542 26.2641 42.805C26.2057 42.856 26.1523 42.9124 26.1066 42.9733C26.0596 43.0331 26.0216 43.0973 25.9899 43.1637C25.9581 43.2312 25.9327 43.3009 25.9174 43.3717C25.901 43.4425 25.8921 43.5156 25.8921 43.5876C25.8921 43.6596 25.901 43.7325 25.9174 43.8034C25.9327 43.8742 25.9581 43.9439 25.9899 44.0103C26.0216 44.0779 26.0596 44.1421 26.1066 44.2019C26.1523 44.2626 26.2057 44.3192 26.2641 44.37C26.3224 44.421 26.3872 44.4675 26.4569 44.5073C26.5255 44.5473 26.5991 44.5815 26.6753 44.6092C26.7529 44.6369 26.8328 44.659 26.9141 44.6723C26.9953 44.6867 27.0792 44.6944 27.1615 44.6944C27.2441 44.6944 27.3279 44.6867 27.4092 44.6723C27.4904 44.659 27.5704 44.6369 27.6466 44.6092C27.724 44.5815 27.7976 44.5471 27.8661 44.5073C27.936 44.4675 28.0007 44.421 28.0592 44.37C28.1175 44.3192 28.1708 44.2626 28.2167 44.2019C28.2623 44.1421 28.3016 44.0779 28.3333 44.0103C28.3652 43.9439 28.3892 43.8742 28.4058 43.8034C28.4222 43.7325 28.4312 43.6596 28.4312 43.5876C28.4312 43.5156 28.4222 43.4425 28.4058 43.3717Z" fill="#31C5A1"/>
<path d="M64.8975 43.713C64.8926 43.702 64.8874 43.691 64.8822 43.6801C63.7137 41.2966 60.9732 40.4156 57.7301 41.3812L48.8855 43.5135C48.3741 42.1635 47.0987 41.0147 45.2952 40.4312C45.284 40.4276 45.2728 40.4241 45.2616 40.4208L35.5394 37.544C34.7301 36.6322 32.1955 34.2988 27.4495 34.2988C24.1329 34.2988 21.1989 36.2824 19.5203 38.4446H7.76953C7.06838 38.4446 6.5 38.94 6.5 39.5513V53.5051C6.5 54.1163 7.06838 54.6118 7.76953 54.6118H15.3178C16.0189 54.6118 16.5873 54.1163 16.5873 53.5051V52.5495H20.1271C20.8283 52.5495 21.3967 52.0541 21.3967 51.4428V51.1242C23.4601 51.2811 24.1389 51.6224 26.034 52.5751C27.4914 53.3078 29.6941 54.4151 33.6609 55.97C33.6794 55.9772 33.6979 55.984 33.7166 55.9904C34.4779 56.2515 35.9663 56.6618 37.8011 56.6618C39.0783 56.6618 40.5236 56.4629 42.0072 55.8765L61.5568 49.7744C61.5916 49.7634 61.6259 49.7513 61.6595 49.7378C63.5278 48.9884 66.312 46.8763 64.8975 43.713ZM14.0482 52.3982H9.03906V40.658H14.0482V52.3982ZM18.8576 50.3359H16.5873V40.658H18.8576V50.3359ZM60.645 47.7076L41.104 53.8072C41.087 53.8124 41.0638 53.8204 41.0468 53.8264C41.0296 53.8325 41.0126 53.8389 40.9957 53.8457C38.2741 54.936 35.6873 54.2833 34.6734 53.9396C30.8417 52.4366 28.7966 51.4085 27.3024 50.6572C25.2249 49.6129 24.2239 49.1095 21.3967 48.9061V39.9918C22.6 38.2724 24.9337 36.5124 27.4497 36.5124C31.7642 36.5124 33.5925 38.9588 33.6643 39.0576C33.8193 39.2774 34.0577 39.443 34.3379 39.5259L44.4275 42.5114C46.0388 43.0385 46.8905 44.2417 46.4991 45.4413C46.3183 45.9954 45.9011 46.455 45.3238 46.7353C44.7517 47.0133 44.0903 47.082 43.4598 46.9298L32.0858 43.7875C31.4169 43.6028 30.7037 43.9255 30.492 44.5083C30.2801 45.091 30.6503 45.7131 31.3186 45.8976L42.7126 49.0455C42.7247 49.0487 42.7367 49.052 42.7489 49.055C43.2037 49.1677 43.6668 49.2236 44.1272 49.2236C44.9699 49.2236 45.8034 49.0364 46.5598 48.6689C47.7293 48.1008 48.5751 47.1697 48.9413 46.0468C48.9705 45.9571 48.9963 45.8675 49.0188 45.7778L58.5509 43.4757C59.9276 43.0659 61.7347 42.9181 62.5393 44.5337C63.3721 46.4303 61.2076 47.4737 60.645 47.7076Z" fill="#31C5A1"/>
<path d="M52.0839 14.5563C52.0673 14.4855 52.0432 14.4158 52.0101 14.3482C51.9784 14.2817 51.9404 14.2176 51.8934 14.1578C51.8476 14.097 51.7943 14.0405 51.7359 13.9896C51.6776 13.9387 51.6128 13.8922 51.5429 13.8524C51.4745 13.8125 51.4007 13.7782 51.3247 13.7506C51.2471 13.7229 51.1672 13.7007 51.0872 13.6875C50.9234 13.6587 50.7546 13.6587 50.5908 13.6875C50.5096 13.7007 50.4296 13.7229 50.3534 13.7506C50.276 13.7782 50.2024 13.8125 50.1339 13.8524C50.064 13.8922 49.9991 13.9387 49.9408 13.9896C49.8825 14.0405 49.8292 14.097 49.7833 14.1578C49.7377 14.2176 49.6984 14.2817 49.6667 14.3482C49.6348 14.4158 49.6095 14.4855 49.5942 14.5563C49.5778 14.6271 49.5688 14.7002 49.5688 14.772C49.5688 14.844 49.5778 14.9171 49.5942 14.9879C49.6095 15.0588 49.6348 15.1285 49.6667 15.1949C49.6984 15.2624 49.7377 15.3265 49.7833 15.3863C49.8292 15.4472 49.8825 15.5036 49.9408 15.5546C49.9991 15.6055 50.064 15.6519 50.1339 15.6919C50.2024 15.7317 50.276 15.766 50.3534 15.7936C50.4296 15.8214 50.5096 15.8423 50.5908 15.8568C50.6721 15.8711 50.7559 15.8789 50.8385 15.8789C50.9208 15.8789 51.0047 15.8711 51.0872 15.8568C51.1672 15.8423 51.2471 15.8214 51.3247 15.7936C51.4007 15.766 51.4745 15.7317 51.5429 15.6919C51.6128 15.6519 51.6776 15.6055 51.7359 15.5546C51.7943 15.5036 51.8476 15.4472 51.8934 15.3863C51.9404 15.3265 51.9784 15.2624 52.0101 15.1949C52.0432 15.1285 52.0673 15.0588 52.0839 14.9879C52.1003 14.9171 52.1079 14.844 52.1079 14.772C52.1079 14.7002 52.1003 14.6271 52.0839 14.5563Z" fill="#31C5A1"/>
<path d="M70.23 3.74837H62.6819C61.9807 3.74837 61.4123 4.24388 61.4123 4.85514V5.81073H57.8725C57.1713 5.81073 56.6029 6.30623 56.6029 6.9175V7.23603C54.5395 7.07898 53.8607 6.73788 51.9658 5.78517C50.5084 5.05248 48.3055 3.94516 44.3387 2.39026C44.3202 2.38296 44.3017 2.3762 44.2828 2.36979C42.9916 1.92685 39.6074 1.05539 35.9929 2.48344L30.8844 4.07809L26.5781 0.324145C26.0825 -0.108048 25.2786 -0.108048 24.7828 0.324145L10.6456 12.6488C10.1883 13.0476 10.1006 13.739 10.6456 14.2141L34.8031 35.2744C35.1897 35.6116 36.0948 35.7136 36.5985 35.2744L49.5053 24.0226C49.8408 24.0479 50.189 24.0615 50.55 24.0615C53.8667 24.0615 56.8007 22.0779 58.4791 19.9159H70.23C70.9312 19.9159 71.4996 19.4205 71.4996 18.8092V4.85514C71.4996 4.24388 70.9312 3.74837 70.23 3.74837ZM25.6805 2.67193L28.574 5.19448C27.7138 5.65822 26.7193 5.90635 25.6805 5.90635C24.6413 5.90635 23.647 5.65834 22.7868 5.19448L25.6805 2.67193ZM16.2323 15.9541L13.3388 13.4314L16.2323 10.9088C16.7643 11.6587 17.0488 12.5256 17.0488 13.4314C17.0488 14.3372 16.7644 15.2041 16.2323 15.9541ZM35.7009 32.9266L32.8079 30.4045C34.5743 29.4542 36.8273 29.4542 38.5939 30.4045L35.7009 32.9266ZM40.423 28.81C37.6176 27.0359 33.7844 27.0359 30.979 28.81L18.0613 17.5485C19.0528 16.3598 19.5879 14.9319 19.5879 13.4314C19.5879 11.9307 19.0528 10.503 18.0613 9.31433L20.9581 6.78912C22.3214 7.6534 23.9591 8.12001 25.6805 8.12001C27.4018 8.12001 29.0395 7.6534 30.4031 6.78912L33.149 9.18295C32.5565 9.2592 31.9787 9.42943 31.4398 9.69117C30.5298 10.1332 29.8159 10.7952 29.3713 11.596C27.9392 11.8272 26.6136 12.4316 25.5736 13.3382C22.7519 15.7981 22.7519 19.8005 25.5736 22.2604C26.9844 23.4903 28.8375 24.1053 30.6907 24.1053C32.5438 24.1053 34.3971 23.4903 35.808 22.2604C36.7258 21.4602 37.3688 20.4768 37.6909 19.4049L41.9773 20.6733C41.4948 22.622 41.989 24.6722 43.3221 26.2826L40.423 28.81ZM32.7044 17.929C32.7156 17.9326 32.7268 17.9361 32.738 17.9395L35.2766 18.6906C35.085 19.4449 34.6511 20.1385 34.0125 20.6952C32.181 22.2918 29.2006 22.2921 27.3692 20.6952C25.5375 19.0985 25.5375 16.5003 27.3692 14.9035C27.8109 14.5181 28.3323 14.217 28.9004 14.0128C29.1347 15.713 30.5391 17.2285 32.7044 17.929ZM45.1514 24.6877C44.6615 23.9915 44.3841 23.1969 44.3404 22.386C44.9484 22.7694 45.6915 23.1448 46.5793 23.4429L45.1514 24.6877ZM56.6028 18.3679C55.3996 20.0876 53.0659 21.8477 50.55 21.8477C50.0792 21.8477 49.638 21.8185 49.2256 21.7665C49.224 21.7662 49.2223 21.7661 49.2207 21.7658C46.479 21.4186 45.0042 20.0601 44.5181 19.5222C44.4921 19.4891 44.3818 19.3633 44.3655 19.3423C44.2175 19.1118 43.9751 18.9267 43.6658 18.8351L33.572 15.8485C31.9613 15.3214 31.1098 14.1189 31.5001 12.9196C31.5003 12.9189 31.5006 12.9181 31.5007 12.9173C31.5012 12.9164 31.5014 12.9154 31.5017 12.9145C31.6831 12.3623 32.0997 11.9042 32.6756 11.6245C33.2476 11.3466 33.909 11.2776 34.5397 11.43L45.9138 14.5723C46.5824 14.7571 47.2957 14.4343 47.5075 13.8515C47.7194 13.2688 47.3492 12.6468 46.6808 12.4621L37.6348 9.96301L37.5558 9.89415C37.555 9.89349 37.5543 9.89272 37.5534 9.89206L32.8701 5.80918L36.8956 4.55256C36.9091 4.54824 36.926 4.54282 36.9393 4.53806C36.9427 4.53685 36.9494 4.53462 36.9526 4.5334C36.97 4.52733 36.9869 4.52091 37.0038 4.51415C39.7252 3.42376 42.312 4.07643 43.326 4.42018C47.1578 5.9233 49.203 6.95137 50.6972 7.70253C52.7747 8.74699 53.7758 9.25024 56.6028 9.45377V18.3679ZM61.4123 17.7022H59.142V8.02427H61.4123V17.7022ZM68.9606 17.7022H63.9513V5.96191H68.9606V17.7022Z" fill="#31C5A1"/>
</g>
</g>
<defs>
<filter id="filter0_d_29_1114" x="2.5" y="0" width="72.9995" height="64.6617" filterUnits="userSpaceOnUse" color-interpolation-filters="sRGB">
<feFlood flood-opacity="0" result="BackgroundImageFix"/>
<feColorMatrix in="SourceAlpha" type="matrix" values="0 0 0 0 0 0 0 0 0 0 0 0 0 0 0 0 0 0 127 0" result="hardAlpha"/>
<feOffset dy="4"/>
<feGaussianBlur stdDeviation="2"/>
<feColorMatrix type="matrix" values="0 0 0 0 0 0 0 0 0 0 0 0 0 0 0 0 0 0 0.25 0"/>
<feBlend mode="normal" in2="BackgroundImageFix" result="effect1_dropShadow_29_1114"/>
<feBlend mode="normal" in="SourceGraphic" in2="effect1_dropShadow_29_1114" result="shape"/>
</filter>
<clipPath id="clip0_29_1114">
<path d="M0 5C0 2.23858 2.23858 0 5 0H73C75.7614 0 78 2.23858 78 5V63C78 65.7614 75.7614 68 73 68H5C2.23858 68 0 65.7614 0 63V5Z" fill="white"/>
</clipPath>
</defs>
</svg>
