<svg width="53" height="60" viewBox="0 0 53 60" fill="none" xmlns="http://www.w3.org/2000/svg">
<path d="M0 5C0 2.23858 2.23858 0 5 0H48C50.7614 0 53 2.23858 53 5V55C53 57.7614 50.7614 60 48 60H5C2.23858 60 0 57.7614 0 55V5Z" fill="#EEEAFF"/>
<path d="M21.6474 4.6875C22.4424 4.6875 23.0876 4.26843 23.0876 3.75C23.0876 3.23157 22.4424 2.8125 21.6474 2.8125H21.633C20.838 2.8125 20.2014 3.23157 20.2014 3.75C20.2014 4.26843 20.8524 4.6875 21.6474 4.6875Z" fill="#582EFF"/>
<path d="M25.9239 4.6875H30.2445C31.0409 4.6875 31.6847 4.26843 31.6847 3.75C31.6847 3.23157 31.0409 2.8125 30.2445 2.8125H25.9239C25.1275 2.8125 24.4836 3.23157 24.4836 3.75C24.4836 4.26843 25.1275 4.6875 25.9239 4.6875Z" fill="#582EFF"/>
<path d="M43.2252 0.0028125C43.218 0.0028125 43.2137 0 43.2065 0H8.6413C3.87561 0 0 2.5228 0 5.625V53.4375C0 57.0554 4.52373 60 10.0815 60H41.7663C47.3242 60 51.8478 57.0554 51.8478 53.4375V5.62687C51.8478 2.52843 47.9809 0.009375 43.2252 0.0028125ZM8.6413 1.875H43.1922C43.198 1.875 43.2008 1.87688 43.2065 1.87688C46.3838 1.87688 48.9674 3.55875 48.9674 5.62687H2.88043V5.625C2.88043 3.55687 5.46419 1.875 8.6413 1.875ZM41.7663 54.375H25.9239H10.0815C6.11085 54.375 2.88043 52.2721 2.88043 49.6875V48.75H25.9239H48.9674V49.6875C48.9674 52.2721 45.7369 54.375 41.7663 54.375ZM2.88043 7.50187H48.9674V46.875H2.88043V7.50187ZM41.7663 58.125H10.0815C6.59908 58.125 3.68841 56.507 3.02446 54.3657C4.84489 55.5291 7.33647 56.25 10.0815 56.25H41.7663C44.5115 56.25 47.0029 55.5291 48.8234 54.3657C48.1595 56.507 45.2486 58.125 41.7663 58.125Z" fill="#582EFF"/>
<path d="M30.2446 51.5625C30.2446 50.0118 28.3062 48.75 25.9239 48.75C23.5417 48.75 21.6033 50.0118 21.6033 51.5625C21.6033 53.1132 23.5417 54.375 25.9239 54.375C28.3062 54.375 30.2446 53.1132 30.2446 51.5625ZM25.9239 52.5C25.1289 52.5 24.4837 52.08 24.4837 51.5625C24.4837 51.045 25.1289 50.625 25.9239 50.625C26.7189 50.625 27.3641 51.045 27.3641 51.5625C27.3641 52.08 26.7189 52.5 25.9239 52.5Z" fill="#582EFF"/>
<path d="M12.2138 32.8073C12.2239 32.8073 12.2326 32.811 12.2426 32.811H39.6069C41.5928 32.811 43.2074 31.7601 43.2074 30.4673C43.2074 29.1744 41.5928 28.1235 39.6069 28.1235H12.2426C10.258 28.1235 8.64355 29.1744 8.64355 30.4664C8.64355 31.7517 10.2422 32.7969 12.2138 32.8073ZM39.6069 29.9985C40.0028 29.9985 40.327 30.2094 40.327 30.4673C40.327 30.7251 40.0028 30.936 39.6069 30.936H12.257C12.2513 30.936 12.2484 30.9342 12.2426 30.9342C11.8466 30.9342 11.524 30.7242 11.524 30.4664C11.524 30.2085 11.8466 29.9985 12.2426 29.9985H39.6069Z" fill="#582EFF"/>
<path d="M39.6069 33.7485H12.2426C10.258 33.7485 8.64355 34.7994 8.64355 36.0914C8.64355 37.3767 10.2422 38.4219 12.2138 38.4323C12.2239 38.4323 12.2326 38.436 12.2426 38.436H39.6069C41.5928 38.436 43.2074 37.3851 43.2074 36.0923C43.2074 34.7994 41.5928 33.7485 39.6069 33.7485ZM12.257 36.561C12.2513 36.561 12.2484 36.5592 12.2426 36.5592C11.8466 36.5592 11.524 36.3492 11.524 36.0914C11.524 35.8335 11.8466 35.6235 12.2426 35.6235H39.6069C40.0028 35.6235 40.327 35.8344 40.327 36.0923C40.327 36.3501 40.0028 36.561 39.6069 36.561H12.257Z" fill="#582EFF"/>
<path d="M33.1251 40.3118H18.7229C17.9265 40.3118 17.2827 40.7309 17.2827 41.2493C17.2827 41.7677 17.9265 42.1868 18.7229 42.1868H33.1251C33.9215 42.1868 34.5653 41.7677 34.5653 41.2493C34.5653 40.7309 33.9215 40.3118 33.1251 40.3118Z" fill="#582EFF"/>
<path d="M19.5187 24.7485C19.5259 24.7532 19.5346 24.756 19.5418 24.7598C21.2815 25.6889 23.5053 26.2485 25.9263 26.2485C31.4842 26.2485 36.0078 23.3039 36.0078 19.686C36.0078 16.0682 31.4842 13.1235 25.9263 13.1235C20.3684 13.1235 15.8447 16.0682 15.8447 19.686C15.8433 21.7223 17.2749 23.5439 19.5187 24.7485ZM22.3603 23.7342C23.1523 22.9776 24.4746 22.4985 25.9263 22.4985C27.3767 22.4985 28.6987 22.9785 29.4909 23.7332C28.435 24.1298 27.2283 24.3735 25.9249 24.3735C24.6213 24.3735 23.4159 24.1298 22.3603 23.7342ZM25.9249 20.6235C25.1299 20.6235 24.4847 20.2035 24.4847 19.686C24.4847 19.1685 25.1299 18.7485 25.9249 18.7485C26.7199 18.7485 27.3651 19.1685 27.3651 19.686C27.3651 20.2035 26.7199 20.6235 25.9249 20.6235ZM25.9249 14.9985C29.8955 14.9985 33.126 17.1014 33.126 19.686C33.126 20.7389 32.57 21.6998 31.6669 22.4835C31.0809 21.9801 30.3377 21.5705 29.5038 21.2582C29.9732 20.8101 30.2456 20.2682 30.2456 19.686C30.2456 18.1355 28.3069 16.8735 25.9249 16.8735C23.5427 16.8735 21.6041 18.1355 21.6041 19.686C21.6041 20.2682 21.8778 20.8101 22.3459 21.2601C21.5134 21.5723 20.7688 21.9819 20.1841 22.4855C19.2796 21.7007 18.7237 20.7389 18.7237 19.686C18.7237 17.1014 21.9541 14.9985 25.9249 14.9985Z" fill="#582EFF"/>
</svg>
